<?xml version="1.0" standalone="no"?>
<!DOCTYPE svg PUBLIC "-//W3C//DTD SVG 20010904//EN"
 "http://www.w3.org/TR/2001/REC-SVG-20010904/DTD/svg10.dtd">
<svg version="1.0" xmlns="http://www.w3.org/2000/svg"
 width="225.000000pt" height="225.000000pt" viewBox="0 0 225.000000 225.000000"
 preserveAspectRatio="xMidYMid meet">
<metadata>
Created by potrace 1.16, written by Peter Selinger 2001-2019
</metadata>
<g transform="translate(0.000000,225.000000) scale(0.100000,-0.100000)"
fill="#000000" stroke="none">
<path d="M710 1287 c-24 -8 -41 -24 -55 -49 -18 -35 -19 -40 -5 -65 9 -15 32
-37 53 -49 52 -29 87 -61 87 -79 0 -9 -11 -27 -25 -40 -47 -48 -127 -22 -137
45 -2 18 -6 12 -14 -25 l-10 -51 35 -3 c100 -7 122 -4 151 24 59 57 47 101
-45 159 -66 43 -81 79 -45 108 47 38 120 12 121 -45 0 -26 2 -28 8 -12 4 11
11 37 14 58 5 32 4 37 -8 27 -8 -6 -24 -9 -37 -5 -46 13 -54 13 -88 2z"/>
<path d="M428 1270 c-9 -14 -48 -80 -88 -148 -45 -77 -81 -128 -98 -137 -26
-14 -26 -14 27 -15 48 0 53 2 37 13 -17 13 -17 15 3 56 l22 42 62 -3 62 -3 10
-39 c8 -33 6 -40 -10 -52 -17 -12 -12 -14 46 -14 52 1 60 3 44 12 -11 6 -22
12 -24 14 -1 1 -20 69 -40 151 -36 144 -38 147 -53 123z"/>
<path d="M915 1283 c11 -3 24 -8 28 -12 8 -8 -29 -246 -42 -271 -4 -8 -19 -18
-32 -21 -13 -4 9 -7 51 -7 41 1 65 3 53 5 -29 6 -35 29 -23 93 5 29 10 54 10
56 0 2 39 4 86 4 l86 0 -6 -27 c-3 -16 -8 -45 -12 -65 -7 -40 -17 -53 -49 -61
-11 -2 14 -5 55 -5 41 0 68 2 60 5 -36 13 -37 29 -16 157 22 128 27 141 61
149 11 3 -14 5 -55 5 -46 0 -65 -3 -50 -7 21 -6 25 -13 24 -47 0 -21 -4 -51
-7 -66 -7 -28 -8 -28 -92 -28 l-84 0 5 33 c11 59 25 97 42 107 12 7 -1 9 -48
9 -36 -1 -56 -3 -45 -6z"/>
<path d="M1278 1280 c27 -11 28 -29 6 -159 -19 -109 -26 -129 -57 -141 -15 -6
1 -9 53 -8 41 0 65 3 53 5 -29 6 -30 33 -3 179 13 74 25 113 37 121 14 11 7
13 -48 12 -48 0 -59 -2 -41 -9z"/>
<path d="M1476 1269 c-64 -51 -51 -108 38 -157 30 -17 57 -41 61 -52 13 -42
-49 -98 -92 -83 -32 11 -63 46 -64 72 -1 25 -2 25 -9 -4 -11 -44 -11 -77 0
-70 5 3 28 1 50 -6 77 -23 160 27 160 97 0 23 -40 64 -87 88 -65 33 -79 91
-27 114 54 25 104 1 104 -51 0 -42 16 -23 23 28 l6 40 -68 3 c-57 2 -72 -1
-95 -19z"/>
<path d="M1705 1283 c11 -3 23 -8 27 -12 8 -7 -27 -233 -42 -268 -5 -12 -19
-23 -32 -26 -13 -2 11 -4 52 -5 45 0 65 3 50 7 -31 9 -35 26 -20 96 l12 56 81
-3 82 -3 -3 -40 c-6 -60 -27 -103 -54 -108 -12 -2 8 -5 46 -6 66 -1 68 -1 47
17 l-21 17 20 120 c24 136 28 147 61 156 14 4 -8 7 -51 7 -41 0 -66 -3 -55 -5
29 -8 36 -23 29 -68 -11 -78 -7 -75 -100 -75 -77 0 -85 2 -80 18 2 9 8 36 11
60 4 26 15 48 28 57 20 14 17 15 -43 14 -36 -1 -56 -3 -45 -6z"/>
</g>
</svg>
